<?xml version="1.0" encoding="utf-8"?>
<!-- Generator: Adobe Illustrator 16.0.0, SVG Export Plug-In . SVG Version: 6.00 Build 0)  -->
<!DOCTYPE svg PUBLIC "-//W3C//DTD SVG 1.1//EN" "http://www.w3.org/Graphics/SVG/1.1/DTD/svg11.dtd">
<svg version="1.1" id="Layer_1" xmlns="http://www.w3.org/2000/svg" xmlns:xlink="http://www.w3.org/1999/xlink" x="0px" y="0px"
	 width="960px" height="560px" viewBox="0 0 960 560" enable-background="new 0 0 960 560" xml:space="preserve">
<path fill="none" stroke="#000000" stroke-miterlimit="10" d="M433.51,389.229c0-133.307-107.87-241.176-241.176-241.176"/>
<rect x="125.5" y="114.5" fill="#FFFFFF" stroke="#FFFFFF" stroke-miterlimit="10" width="333" height="110"/>
<path fill="none" stroke="#FF0000" stroke-miterlimit="10" d="M445.51,389.229c0-133.307-107.869-241.176-241.176-241.176"/>
<line fill="none" stroke="#9E0000" stroke-miterlimit="10" x1="445.5" y1="389" x2="445.5" y2="230"/>
<line fill="none" stroke="#9E0000" stroke-miterlimit="10" x1="445.5" y1="230" x2="440.124" y2="246.091"/>
<line fill="none" stroke="#9E0000" stroke-miterlimit="10" x1="445.124" y1="230" x2="450.5" y2="246.092"/>
<line fill="#FFFFFF" stroke="#FF0000" stroke-miterlimit="10" x1="204.333" y1="148.052" x2="219.209" y2="142.17"/>
<line fill="none" stroke="#FF0000" stroke-miterlimit="10" x1="204.333" y1="148.052" x2="219.209" y2="153.281"/>
<circle fill="#FFFFFF" stroke="#000000" stroke-miterlimit="10" cx="375.601" cy="218.777" r="4.902"/>
<line fill="#FFFFFF" stroke="#000000" stroke-miterlimit="10" x1="366.739" y1="226.5" x2="381.994" y2="212.876"/>
<line fill="#FFFFFF" stroke="#000000" stroke-miterlimit="10" x1="434" y1="389.5" x2="450" y2="389.5"/>
<line fill="none" stroke="#000000" stroke-miterlimit="10" x1="375.994" y1="218.876" x2="291.68" y2="134.562"/>
<line fill="none" stroke="#000000" stroke-miterlimit="10" x1="291.68" y1="135.562" x2="296.255" y2="147.327"/>
<line fill="none" stroke="#000000" stroke-miterlimit="10" x1="291.68" y1="134.562" x2="305.405" y2="140.444"/>
<polygon fill="#FFFFFF" stroke="#FF0000" stroke-miterlimit="10" points="203.994,381.385 206.71,386.889 212.784,387.771 
	208.389,392.056 209.426,398.105 203.994,395.249 198.561,398.105 199.599,392.056 195.203,387.771 201.277,386.889 "/>
<line fill="none" stroke="#F94600" stroke-miterlimit="10" x1="203.994" y1="389.745" x2="368.989" y2="224.75"/>
</svg>
