<?xml version="1.0" encoding="utf-8"?>
<!-- Generator: Adobe Illustrator 16.0.0, SVG Export Plug-In . SVG Version: 6.00 Build 0)  -->
<!DOCTYPE svg PUBLIC "-//W3C//DTD SVG 1.1//EN" "http://www.w3.org/Graphics/SVG/1.1/DTD/svg11.dtd">
<svg version="1.1" id="Layer_1" xmlns="http://www.w3.org/2000/svg" xmlns:xlink="http://www.w3.org/1999/xlink" x="0px" y="0px"
	 width="960px" height="560px" viewBox="0 0 960 560" enable-background="new 0 0 960 560" xml:space="preserve">
<line fill="none" stroke="#FF0000" stroke-miterlimit="10" x1="368.882" y1="399.032" x2="459.079" y2="56.549"/>
<polygon fill="#FFFFFF" stroke="#FF0000" stroke-miterlimit="10" points="368.732,389.773 371.587,395.56 377.973,396.487 
	373.353,400.991 374.443,407.351 368.732,404.349 363.021,407.351 364.111,400.991 359.491,396.487 365.876,395.56 "/>
<line fill="none" stroke="#FF0000" stroke-miterlimit="10" x1="459.079" y1="56.549" x2="450.582" y2="66.353"/>
<line fill="none" stroke="#FF0000" stroke-miterlimit="10" x1="459.303" y1="56.61" x2="462.775" y2="68.253"/>
<circle fill="#FFFFFF" stroke="#000000" stroke-miterlimit="10" cx="416.32" cy="221.17" r="6.863"/>
<line fill="none" stroke="#000000" stroke-miterlimit="10" x1="416.183" y1="220.847" x2="381.301" y2="211.493"/>
<line fill="none" stroke="#000000" stroke-miterlimit="10" x1="370.184" y1="399.848" x2="335.301" y2="390.493"/>
<line fill="none" stroke="#000000" stroke-miterlimit="10" x1="335.301" y1="390.493" x2="381.301" y2="211.493"/>
<line fill="none" stroke="#000000" stroke-miterlimit="10" x1="416.183" y1="220.847" x2="438.897" y2="133.178"/>
<line fill="none" stroke="#000000" stroke-miterlimit="10" x1="438.897" y1="133.178" x2="430.32" y2="142.17"/>
<line fill="none" stroke="#000000" stroke-miterlimit="10" x1="438.897" y1="133.178" x2="443.392" y2="142.17"/>
</svg>
